# xmcd
#
# Track frame offsets:
#	150
#	11124
#	20178
#	24552
#	40749
#	52971
#	58267
#	67076
#
# Disc length: 1071 seconds
#
# Revision: 0
# Processed by: cddbd v1.5.2PL0 Copyright (c) Steve Scherf et al.
# Submitted via: audiograbber 1.83.01
#
DISCID=6e042d08
DTITLE=1211 - am
DYEAR=1900
DGENRE=
TTITLE0=anka
TTITLE1=anka1
TTITLE2=anka2
TTITLE3=anka3
TTITLE4=anka4
TTITLE5=anka5
TTITLE6=anka6
TTITLE7=anka7
EXTD=
EXTT0=
EXTT1=
EXTT2=
EXTT3=
EXTT4=
EXTT5=
EXTT6=
EXTT7=
PLAYORDER=
